<svg width="24" height="24" viewBox="0 0 24 24" fill="none" xmlns="http://www.w3.org/2000/svg">
<rect width="24" height="24" fill="white" style="mix-blend-mode:multiply"/>
<path d="M20.9325 13.4102C21.0081 12.944 21.0457 12.4724 21.045 12.0002C21.045 9.60129 20.092 7.30066 18.3958 5.60439C16.6995 3.90813 14.3989 2.95517 12 2.95517C11.5277 2.95444 11.0562 2.99207 10.59 3.06768C9.54456 2.44143 8.31986 2.18241 7.11038 2.33174C5.9009 2.48107 4.77598 3.0302 3.91426 3.89193C3.05253 4.75365 2.5034 5.87857 2.35407 7.08805C2.20473 8.29753 2.46376 9.52223 3.09 10.5677C3.00563 11.0406 2.96047 11.5198 2.955 12.0002C2.955 14.3991 3.90795 16.6997 5.60422 18.396C7.30049 20.0922 9.60112 21.0452 12 21.0452C12.4723 21.0459 12.9438 21.0083 13.41 20.9327C14.4554 21.5589 15.6801 21.8179 16.8896 21.6686C18.0991 21.5193 19.224 20.9701 20.0857 20.1084C20.9475 19.2467 21.4966 18.1218 21.6459 16.9123C21.7953 15.7028 21.5362 14.4781 20.91 13.4327L20.9325 13.4102ZM16.2975 16.1102C15.8742 16.6955 15.2908 17.146 14.6175 17.4077C13.7868 17.7337 12.8997 17.8917 12.0075 17.8727C10.969 17.9161 9.9359 17.7023 9 17.2502C8.45437 16.9569 7.98645 16.5378 7.635 16.0277C7.31307 15.5919 7.13009 15.0691 7.11 14.5277C7.10921 14.3872 7.13745 14.2481 7.19294 14.119C7.24844 13.9899 7.33 13.8737 7.4325 13.7777C7.65966 13.5843 7.95209 13.4851 8.25 13.5002C8.49896 13.4955 8.74128 13.5807 8.9325 13.7402C9.14182 13.936 9.30346 14.1772 9.405 14.4452C9.53512 14.7584 9.70124 15.0554 9.9 15.3302C10.0981 15.5839 10.3557 15.7848 10.65 15.9152C11.0497 16.0867 11.4829 16.1661 11.9175 16.1477C12.5365 16.1777 13.1496 16.0152 13.6725 15.6827C13.8732 15.5651 14.0401 15.3977 14.157 15.1966C14.274 14.9956 14.337 14.7677 14.34 14.5352C14.3465 14.3723 14.3184 14.2099 14.2577 14.0587C14.1969 13.9075 14.1048 13.7708 13.9875 13.6577C13.7204 13.4116 13.3993 13.2318 13.05 13.1327C12.66 13.0052 12.1425 12.8777 11.49 12.7352C10.7406 12.5607 10.0098 12.3146 9.3075 12.0002C8.75492 11.7737 8.26767 11.4128 7.89 10.9502C7.5318 10.4734 7.34663 9.88877 7.365 9.29268C7.35894 8.68668 7.55414 8.0958 7.92 7.61267C8.33789 7.09349 8.89441 6.7034 9.525 6.48767C10.3224 6.22284 11.1602 6.10096 12 6.12768C12.6571 6.11605 13.3121 6.20457 13.9425 6.39018C14.4373 6.53708 14.902 6.77071 15.315 7.08017C15.64 7.3243 15.9108 7.63334 16.11 7.98767C16.2721 8.2739 16.3598 8.59626 16.365 8.92518C16.364 9.06539 16.335 9.20399 16.2796 9.3328C16.2242 9.46161 16.1436 9.57803 16.0425 9.67518C15.9404 9.78577 15.8162 9.87364 15.678 9.93308C15.5397 9.99252 15.3905 10.0222 15.24 10.0202C14.9987 10.0389 14.7596 9.9637 14.5725 9.81018C14.3757 9.62055 14.211 9.40017 14.085 9.15768C13.8993 8.77542 13.6301 8.43969 13.2975 8.17517C12.861 7.90304 12.3471 7.78183 11.835 7.83017C11.3093 7.80801 10.7884 7.93824 10.335 8.20517C10.1703 8.29312 10.0312 8.42227 9.93131 8.58C9.83141 8.73774 9.77411 8.91869 9.765 9.10518C9.75906 9.30894 9.82549 9.50822 9.9525 9.66768C10.1021 9.84099 10.2859 9.98144 10.4925 10.0802C10.7125 10.194 10.9437 10.2845 11.1825 10.3502C11.4225 10.4177 11.8125 10.5152 12.36 10.6427C13.05 10.7927 13.665 10.9577 14.2275 11.1377C14.7306 11.291 15.2102 11.5131 15.6525 11.7977C16.0383 12.0417 16.3558 12.3798 16.575 12.7802C16.7979 13.2369 16.9011 13.7427 16.875 14.2502C16.8818 14.9153 16.6798 15.5658 16.2975 16.1102Z" fill="white"/>
</svg>
